<svg xmlns="http://www.w3.org/2000/svg" xmlns:xlink="http://www.w3.org/1999/xlink" width="900" zoomAndPan="magnify" viewBox="0 0 675 112.499997" height="150" preserveAspectRatio="xMidYMid meet" version="1.0"><defs><g/></defs><g fill="#0d0d0d" fill-opacity="1"><g transform="translate(235.251307, 84.275439)"><g><path d="M 43.09375 -10.734375 C 43.488281 -10.734375 43.828125 -10.578125 44.109375 -10.265625 L 46.90625 -7.25 C 44.78125 -4.78125 42.203125 -2.859375 39.171875 -1.484375 C 36.140625 -0.109375 32.472656 0.578125 28.171875 0.578125 C 24.441406 0.578125 21.054688 -0.0664062 18.015625 -1.359375 C 14.972656 -2.648438 12.375 -4.460938 10.21875 -6.796875 C 8.070312 -9.128906 6.40625 -11.925781 5.21875 -15.1875 C 4.03125 -18.445312 3.4375 -22.035156 3.4375 -25.953125 C 3.4375 -29.867188 4.050781 -33.457031 5.28125 -36.71875 C 6.519531 -39.976562 8.253906 -42.78125 10.484375 -45.125 C 12.722656 -47.46875 15.398438 -49.285156 18.515625 -50.578125 C 21.640625 -51.878906 25.085938 -52.53125 28.859375 -52.53125 C 32.554688 -52.53125 35.816406 -51.9375 38.640625 -50.75 C 41.472656 -49.5625 43.960938 -47.953125 46.109375 -45.921875 L 43.796875 -42.703125 C 43.648438 -42.460938 43.460938 -42.265625 43.234375 -42.109375 C 43.003906 -41.953125 42.691406 -41.875 42.296875 -41.875 C 41.867188 -41.875 41.335938 -42.109375 40.703125 -42.578125 C 40.078125 -43.046875 39.253906 -43.566406 38.234375 -44.140625 C 37.222656 -44.722656 35.957031 -45.25 34.4375 -45.71875 C 32.914062 -46.195312 31.039062 -46.4375 28.8125 -46.4375 C 26.132812 -46.4375 23.679688 -45.96875 21.453125 -45.03125 C 19.234375 -44.101562 17.316406 -42.757812 15.703125 -41 C 14.097656 -39.238281 12.847656 -37.085938 11.953125 -34.546875 C 11.066406 -32.003906 10.625 -29.140625 10.625 -25.953125 C 10.625 -22.710938 11.085938 -19.820312 12.015625 -17.28125 C 12.941406 -14.75 14.207031 -12.609375 15.8125 -10.859375 C 17.425781 -9.109375 19.328125 -7.769531 21.515625 -6.84375 C 23.703125 -5.925781 26.0625 -5.46875 28.59375 -5.46875 C 30.144531 -5.46875 31.539062 -5.554688 32.78125 -5.734375 C 34.03125 -5.921875 35.179688 -6.207031 36.234375 -6.59375 C 37.285156 -6.976562 38.265625 -7.46875 39.171875 -8.0625 C 40.078125 -8.65625 40.976562 -9.363281 41.875 -10.1875 C 42.28125 -10.550781 42.6875 -10.734375 43.09375 -10.734375 Z M 43.09375 -10.734375 "/></g></g></g><g fill="#0d0d0d" fill-opacity="1"><g transform="translate(283.679956, 84.275439)"><g/></g></g><g fill="#0d0d0d" fill-opacity="1"><g transform="translate(302.239436, 84.275439)"><g><path d="M 17.515625 -25.59375 C 14.953125 -24.238281 13.019531 -22.59375 11.71875 -20.65625 C 10.425781 -18.726562 9.78125 -16.628906 9.78125 -14.359375 C 9.78125 -12.785156 10.070312 -11.398438 10.65625 -10.203125 C 11.238281 -9.003906 12 -7.992188 12.9375 -7.171875 C 13.882812 -6.347656 14.960938 -5.722656 16.171875 -5.296875 C 17.378906 -4.878906 18.609375 -4.671875 19.859375 -4.671875 C 22.566406 -4.671875 25 -5.164062 27.15625 -6.15625 C 29.320312 -7.15625 31.21875 -8.488281 32.84375 -10.15625 Z M 51 0 L 44.734375 0 C 44.035156 0 43.46875 -0.0820312 43.03125 -0.25 C 42.59375 -0.414062 42.117188 -0.769531 41.609375 -1.3125 L 36.359375 -6.59375 C 34.085938 -4.394531 31.46875 -2.648438 28.5 -1.359375 C 25.539062 -0.0664062 22.285156 0.578125 18.734375 0.578125 C 16.804688 0.578125 14.914062 0.253906 13.0625 -0.390625 C 11.21875 -1.046875 9.554688 -1.992188 8.078125 -3.234375 C 6.609375 -4.484375 5.425781 -6 4.53125 -7.78125 C 3.632812 -9.570312 3.1875 -11.59375 3.1875 -13.84375 C 3.1875 -15.539062 3.46875 -17.144531 4.03125 -18.65625 C 4.601562 -20.164062 5.394531 -21.5625 6.40625 -22.84375 C 7.425781 -24.125 8.625 -25.269531 10 -26.28125 C 11.382812 -27.289062 12.894531 -28.160156 14.53125 -28.890625 C 13.0625 -30.773438 11.972656 -32.59375 11.265625 -34.34375 C 10.566406 -36.09375 10.21875 -37.910156 10.21875 -39.796875 C 10.21875 -41.566406 10.535156 -43.222656 11.171875 -44.765625 C 11.816406 -46.316406 12.742188 -47.664062 13.953125 -48.8125 C 15.160156 -49.957031 16.628906 -50.863281 18.359375 -51.53125 C 20.085938 -52.195312 22.023438 -52.53125 24.171875 -52.53125 C 26.085938 -52.53125 27.828125 -52.21875 29.390625 -51.59375 C 30.960938 -50.976562 32.316406 -50.160156 33.453125 -49.140625 C 34.585938 -48.128906 35.488281 -46.953125 36.15625 -45.609375 C 36.820312 -44.273438 37.203125 -42.882812 37.296875 -41.4375 L 33.28125 -40.640625 C 32.476562 -40.441406 31.882812 -40.816406 31.5 -41.765625 C 31.332031 -42.390625 31.0625 -43.039062 30.6875 -43.71875 C 30.3125 -44.394531 29.828125 -45.007812 29.234375 -45.5625 C 28.640625 -46.125 27.925781 -46.582031 27.09375 -46.9375 C 26.257812 -47.300781 25.285156 -47.484375 24.171875 -47.484375 C 22.960938 -47.484375 21.867188 -47.289062 20.890625 -46.90625 C 19.921875 -46.519531 19.085938 -45.984375 18.390625 -45.296875 C 17.703125 -44.609375 17.175781 -43.796875 16.8125 -42.859375 C 16.457031 -41.929688 16.28125 -40.925781 16.28125 -39.84375 C 16.28125 -38.988281 16.375 -38.175781 16.5625 -37.40625 C 16.757812 -36.632812 17.066406 -35.847656 17.484375 -35.046875 C 17.910156 -34.253906 18.445312 -33.445312 19.09375 -32.625 C 19.75 -31.800781 20.535156 -30.929688 21.453125 -30.015625 L 36.390625 -14.828125 C 37.304688 -16.472656 38.039062 -18.179688 38.59375 -19.953125 C 39.15625 -21.734375 39.519531 -23.503906 39.6875 -25.265625 C 39.738281 -25.722656 39.882812 -26.082031 40.125 -26.34375 C 40.363281 -26.613281 40.703125 -26.75 41.140625 -26.75 L 45.09375 -26.75 C 45.070312 -23.96875 44.632812 -21.242188 43.78125 -18.578125 C 42.9375 -15.910156 41.71875 -13.40625 40.125 -11.0625 Z M 51 0 "/></g></g></g><g fill="#0d0d0d" fill-opacity="1"><g transform="translate(353.857989, 84.275439)"><g/></g></g><g fill="#0d0d0d" fill-opacity="1"><g transform="translate(372.417468, 84.275439)"><g><path d="M 60.6875 -51.953125 L 60.6875 0 L 54.515625 0 L 54.515625 -38.171875 C 54.515625 -38.679688 54.53125 -39.222656 54.5625 -39.796875 C 54.601562 -40.378906 54.648438 -40.972656 54.703125 -41.578125 L 36.859375 -9.09375 C 36.304688 -8.007812 35.460938 -7.46875 34.328125 -7.46875 L 33.3125 -7.46875 C 32.175781 -7.46875 31.332031 -8.007812 30.78125 -9.09375 L 12.578125 -41.71875 C 12.722656 -40.4375 12.796875 -39.253906 12.796875 -38.171875 L 12.796875 0 L 6.640625 0 L 6.640625 -51.953125 L 11.8125 -51.953125 C 12.445312 -51.953125 12.929688 -51.890625 13.265625 -51.765625 C 13.609375 -51.640625 13.9375 -51.300781 14.25 -50.75 L 32.1875 -18.78125 C 32.476562 -18.195312 32.757812 -17.585938 33.03125 -16.953125 C 33.3125 -16.328125 33.578125 -15.691406 33.828125 -15.046875 C 34.066406 -15.691406 34.316406 -16.332031 34.578125 -16.96875 C 34.847656 -17.613281 35.140625 -18.226562 35.453125 -18.8125 L 53.0625 -50.75 C 53.351562 -51.300781 53.675781 -51.640625 54.03125 -51.765625 C 54.382812 -51.890625 54.875 -51.953125 55.5 -51.953125 Z M 60.6875 -51.953125 "/></g></g></g></svg>