<svg xmlns="http://www.w3.org/2000/svg" xmlns:xlink="http://www.w3.org/1999/xlink" width="200" zoomAndPan="magnify" viewBox="0 0 150 112.499997" height="150" preserveAspectRatio="xMidYMid meet" version="1.0"><defs><g/><clipPath id="3726e1b186"><path d="M 0.332031 0 L 149.667969 0 L 149.667969 112.003906 L 0.332031 112.003906 Z M 0.332031 0 " clip-rule="nonzero"/></clipPath><clipPath id="f4efadeba2"><path d="M 17 0 L 133 0 L 133 112.003906 L 17 112.003906 Z M 17 0 " clip-rule="nonzero"/></clipPath><clipPath id="1de52749bd"><rect x="0" width="56" y="0" height="85"/></clipPath><clipPath id="fd3fd053de"><path d="M 36 29 L 103 29 L 103 112.003906 L 36 112.003906 Z M 36 29 " clip-rule="nonzero"/></clipPath><clipPath id="45a208e866"><rect x="0" width="67" y="0" height="84"/></clipPath><clipPath id="7118e9b4bd"><path d="M 32 36 L 71 36 L 71 89 L 32 89 Z M 32 36 " clip-rule="nonzero"/></clipPath><clipPath id="7e2f6c5abe"><path d="M 59.011719 36.128906 L 70.953125 43.335938 L 43.964844 88.054688 L 32.023438 80.847656 Z M 59.011719 36.128906 " clip-rule="nonzero"/></clipPath><clipPath id="a9c8ac8d45"><path d="M 0 0.078125 L 39 0.078125 L 39 52.167969 L 0 52.167969 Z M 0 0.078125 " clip-rule="nonzero"/></clipPath><clipPath id="7207775598"><path d="M 27.011719 0.128906 L 38.953125 7.335938 L 11.964844 52.054688 L 0.0234375 44.847656 Z M 27.011719 0.128906 " clip-rule="nonzero"/></clipPath><clipPath id="e607e663b8"><rect x="0" width="39" y="0" height="53"/></clipPath><clipPath id="767abebaa0"><path d="M 33 43 L 60 43 L 60 70 L 33 70 Z M 33 43 " clip-rule="nonzero"/></clipPath><clipPath id="e994be2792"><path d="M 43.273438 43.246094 L 59.546875 53.070312 L 49.542969 69.648438 L 33.269531 59.828125 Z M 43.273438 43.246094 " clip-rule="nonzero"/></clipPath><clipPath id="9b0f43a874"><path d="M 0.03125 0.246094 L 26.554688 0.246094 L 26.554688 26.769531 L 0.03125 26.769531 Z M 0.03125 0.246094 " clip-rule="nonzero"/></clipPath><clipPath id="c0bbd289b9"><path d="M 10.273438 0.246094 L 26.546875 10.070312 L 16.542969 26.648438 L 0.269531 16.828125 Z M 10.273438 0.246094 " clip-rule="nonzero"/></clipPath><clipPath id="849e32c946"><rect x="0" width="27" y="0" height="27"/></clipPath><clipPath id="5c0adaee26"><path d="M 52 45 L 78 45 L 78 70 L 52 70 Z M 52 45 " clip-rule="nonzero"/></clipPath><clipPath id="97f0ea23f2"><path d="M 61.238281 45.015625 L 77.511719 54.839844 L 68.574219 69.648438 L 52.300781 59.828125 Z M 61.238281 45.015625 " clip-rule="nonzero"/></clipPath><clipPath id="12645669ab"><path d="M 0.144531 0 L 25.710938 0 L 25.710938 24.769531 L 0.144531 24.769531 Z M 0.144531 0 " clip-rule="nonzero"/></clipPath><clipPath id="57b328b7d1"><path d="M 9.238281 0.015625 L 25.511719 9.839844 L 16.574219 24.648438 L 0.300781 14.828125 Z M 9.238281 0.015625 " clip-rule="nonzero"/></clipPath><clipPath id="38be4371fc"><rect x="0" width="26" y="0" height="25"/></clipPath><clipPath id="ae6bed7a28"><path d="M 4.015625 1.886719 L 111.980469 1.886719 L 111.980469 109.90625 L 4.015625 109.90625 Z M 4.015625 1.886719 " clip-rule="nonzero"/></clipPath><clipPath id="1cf7cfa6c9"><rect x="0" width="116" y="0" height="113"/></clipPath></defs><g clip-path="url(#3726e1b186)"><path fill="#ffffff" d="M 0.332031 0 L 149.667969 0 L 149.667969 112.003906 L 0.332031 112.003906 Z M 0.332031 0 " fill-opacity="1" fill-rule="nonzero"/><path fill="#ffffff" d="M 0.332031 0 L 149.667969 0 L 149.667969 112.003906 L 0.332031 112.003906 Z M 0.332031 0 " fill-opacity="1" fill-rule="nonzero"/></g><g clip-path="url(#f4efadeba2)"><g transform="matrix(1, 0, 0, 1, 17, 0)"><g clip-path="url(#1cf7cfa6c9)"><g transform="matrix(1, 0, 0, 1, 13, 0)"><g clip-path="url(#1de52749bd)"><g fill="#3d3b3a" fill-opacity="1"><g transform="translate(0.915077, 61.172706)"><g><path d="M 32.34375 -50.546875 C 35.84375 -50.546875 38.703125 -50.289062 40.921875 -49.78125 C 43.148438 -49.28125 45.507812 -48.394531 48 -47.125 C 48.3125 -46.914062 48.507812 -46.742188 48.59375 -46.609375 C 48.675781 -46.472656 48.742188 -46.0625 48.796875 -45.375 L 49.75 -36.3125 C 49.75 -36.15625 49.601562 -36.0625 49.3125 -36.03125 C 49.019531 -36.007812 48.847656 -36.078125 48.796875 -36.234375 C 47.628906 -40.628906 45.691406 -43.925781 42.984375 -46.125 C 40.285156 -48.320312 36.738281 -49.421875 32.34375 -49.421875 C 27.675781 -49.421875 23.582031 -48.441406 20.0625 -46.484375 C 16.539062 -44.523438 13.8125 -41.726562 11.875 -38.09375 C 9.945312 -34.46875 8.984375 -30.25 8.984375 -25.4375 C 8.984375 -20.925781 10.054688 -16.722656 12.203125 -12.828125 C 14.347656 -8.941406 17.234375 -5.84375 20.859375 -3.53125 C 24.484375 -1.226562 28.363281 -0.078125 32.5 -0.078125 C 41.289062 -0.078125 46.90625 -4.394531 49.34375 -13.03125 C 49.34375 -13.132812 49.476562 -13.1875 49.75 -13.1875 C 50.113281 -13.1875 50.296875 -13.109375 50.296875 -12.953125 L 49.671875 -4.53125 C 49.617188 -3.894531 49.535156 -3.492188 49.421875 -3.328125 C 49.316406 -3.171875 49.109375 -2.988281 48.796875 -2.78125 C 46.035156 -1.351562 43.453125 -0.363281 41.046875 0.1875 C 38.640625 0.75 35.765625 1.03125 32.421875 1.03125 C 26.910156 1.03125 21.992188 -0.0664062 17.671875 -2.265625 C 13.359375 -4.460938 9.984375 -7.5625 7.546875 -11.5625 C 5.109375 -15.5625 3.890625 -20.15625 3.890625 -25.34375 C 3.890625 -30.332031 5.109375 -34.734375 7.546875 -38.546875 C 9.984375 -42.359375 13.359375 -45.3125 17.671875 -47.40625 C 21.992188 -49.5 26.882812 -50.546875 32.34375 -50.546875 Z M 32.34375 -50.546875 "/></g></g></g></g></g><g clip-path="url(#fd3fd053de)"><g transform="matrix(1, 0, 0, 1, 36, 29)"><g clip-path="url(#45a208e866)"><g fill="#3d3b3a" fill-opacity="1"><g transform="translate(1.473743, 72.487346)"><g><path d="M 62.265625 -0.921875 C 62.421875 -0.921875 62.5 -0.765625 62.5 -0.453125 C 62.5 -0.148438 62.421875 0 62.265625 0 C 60.671875 0 59.410156 -0.0234375 58.484375 -0.078125 L 53.3125 -0.15625 L 48.53125 -0.078125 C 47.757812 -0.0234375 46.679688 0 45.296875 0 C 45.191406 0 45.140625 -0.148438 45.140625 -0.453125 C 45.140625 -0.765625 45.191406 -0.921875 45.296875 -0.921875 C 47.085938 -0.921875 48.40625 -1.0625 49.25 -1.34375 C 50.101562 -1.632812 50.671875 -2.140625 50.953125 -2.859375 C 51.242188 -3.578125 51.335938 -4.707031 51.234375 -6.25 L 49.921875 -42.125 L 31.859375 -0.546875 C 31.765625 -0.335938 31.5625 -0.234375 31.25 -0.234375 C 30.988281 -0.234375 30.753906 -0.335938 30.546875 -0.546875 L 11.734375 -41.8125 L 11.65625 -41.96875 L 11.03125 -8.03125 C 10.976562 -5.351562 11.414062 -3.5 12.34375 -2.46875 C 13.269531 -1.4375 14.992188 -0.921875 17.515625 -0.921875 C 17.617188 -0.921875 17.671875 -0.765625 17.671875 -0.453125 C 17.671875 -0.148438 17.617188 0 17.515625 0 C 16.078125 0 14.972656 -0.0234375 14.203125 -0.078125 L 10.03125 -0.15625 L 6.25 -0.078125 C 5.582031 -0.0234375 4.578125 0 3.234375 0 C 3.140625 0 3.09375 -0.148438 3.09375 -0.453125 C 3.09375 -0.765625 3.140625 -0.921875 3.234375 -0.921875 C 5.398438 -0.921875 6.929688 -1.445312 7.828125 -2.5 C 8.734375 -3.5625 9.210938 -5.40625 9.265625 -8.03125 L 10.03125 -44.59375 C 8.4375 -46.394531 6.351562 -47.296875 3.78125 -47.296875 C 3.675781 -47.296875 3.625 -47.445312 3.625 -47.75 C 3.625 -48.0625 3.675781 -48.21875 3.78125 -48.21875 L 6.40625 -48.140625 C 6.914062 -48.085938 7.582031 -48.0625 8.40625 -48.0625 C 9.226562 -48.0625 9.921875 -48.085938 10.484375 -48.140625 C 11.054688 -48.191406 11.5 -48.21875 11.8125 -48.21875 C 12.53125 -48.21875 13.09375 -47.972656 13.5 -47.484375 C 13.914062 -46.992188 14.535156 -45.898438 15.359375 -44.203125 L 32.71875 -6.71875 L 50 -46.296875 C 50.257812 -46.859375 50.601562 -47.316406 51.03125 -47.671875 C 51.46875 -48.035156 51.894531 -48.21875 52.3125 -48.21875 C 52.519531 -48.21875 52.851562 -48.191406 53.3125 -48.140625 C 53.78125 -48.085938 54.425781 -48.0625 55.25 -48.0625 L 58.71875 -48.140625 C 59.226562 -48.191406 60.023438 -48.21875 61.109375 -48.21875 C 61.210938 -48.21875 61.265625 -48.0625 61.265625 -47.75 C 61.265625 -47.445312 61.210938 -47.296875 61.109375 -47.296875 C 58.429688 -47.296875 56.539062 -46.945312 55.4375 -46.25 C 54.332031 -45.5625 53.804688 -44.1875 53.859375 -42.125 L 55.328125 -6.25 C 55.367188 -4.65625 55.554688 -3.5 55.890625 -2.78125 C 56.234375 -2.0625 56.878906 -1.570312 57.828125 -1.3125 C 58.773438 -1.050781 60.253906 -0.921875 62.265625 -0.921875 Z M 62.265625 -0.921875 "/></g></g></g></g></g></g><g clip-path="url(#7118e9b4bd)"><g clip-path="url(#7e2f6c5abe)"><g transform="matrix(1, 0, 0, 1, 32, 36)"><g clip-path="url(#e607e663b8)"><g clip-path="url(#a9c8ac8d45)"><g clip-path="url(#7207775598)"><path fill="#ffffff" d="M 27.011719 0.128906 L 38.953125 7.335938 L 11.953125 52.074219 L 0.0117188 44.867188 Z M 27.011719 0.128906 " fill-opacity="1" fill-rule="nonzero"/></g></g></g></g></g></g><g clip-path="url(#767abebaa0)"><g clip-path="url(#e994be2792)"><g transform="matrix(1, 0, 0, 1, 33, 43)"><g clip-path="url(#849e32c946)"><g clip-path="url(#9b0f43a874)"><g clip-path="url(#c0bbd289b9)"><path fill="#ffffff" d="M 10.273438 0.246094 L 26.546875 10.070312 L 16.535156 26.660156 L 0.261719 16.839844 Z M 10.273438 0.246094 " fill-opacity="1" fill-rule="nonzero"/></g></g></g></g></g></g><g clip-path="url(#5c0adaee26)"><g clip-path="url(#97f0ea23f2)"><g transform="matrix(1, 0, 0, 1, 52, 45)"><g clip-path="url(#38be4371fc)"><g clip-path="url(#12645669ab)"><g clip-path="url(#57b328b7d1)"><path fill="#ffffff" d="M 9.238281 0.015625 L 25.496094 9.828125 L 16.558594 24.640625 L 0.300781 14.828125 Z M 9.238281 0.015625 " fill-opacity="1" fill-rule="nonzero"/></g></g></g></g></g></g><path stroke-linecap="butt" transform="matrix(0.517368, -0.736653, 0.736653, 0.517368, 26.950135, 93.887679)" fill="none" stroke-linejoin="miter" d="M -0.000638777 1.001416 L 96.311597 1.00037 " stroke="#000000" stroke-width="2" stroke-opacity="1" stroke-miterlimit="4"/><g clip-path="url(#ae6bed7a28)"><path stroke-linecap="butt" transform="matrix(0.900182, 0, 0, 0.900182, 4.016382, 1.886611)" fill="none" stroke-linejoin="miter" d="M -0.00084068 0.000119238 L 119.935873 0.000119238 L 119.935873 119.997584 L -0.00084068 119.997584 Z M -0.00084068 0.000119238 " stroke="#000000" stroke-width="1.658957" stroke-opacity="1" stroke-miterlimit="4"/></g></g></g></g></svg>