<svg xmlns="http://www.w3.org/2000/svg" xmlns:xlink="http://www.w3.org/1999/xlink" width="500" zoomAndPan="magnify" viewBox="0 0 375 112.499997" height="150" preserveAspectRatio="xMidYMid meet" version="1.0"><defs><g/><clipPath id="f70b87fd01"><rect x="0" width="47" y="0" height="80"/></clipPath><clipPath id="8f4d1cc601"><path d="M 169 33 L 225 33 L 225 112.003906 L 169 112.003906 Z M 169 33 " clip-rule="nonzero"/></clipPath><clipPath id="dc490fdcf1"><rect x="0" width="56" y="0" height="80"/></clipPath><clipPath id="00d62f398e"><path d="M 165 39 L 199 39 L 199 83 L 165 83 Z M 165 39 " clip-rule="nonzero"/></clipPath><clipPath id="e5134afc2d"><path d="M 188.339844 39.605469 L 198.246094 45.582031 L 175.859375 82.675781 L 165.953125 76.695312 Z M 188.339844 39.605469 " clip-rule="nonzero"/></clipPath><clipPath id="e96d6a9926"><path d="M 0.9375 0.425781 L 33.429688 0.425781 L 33.429688 43.910156 L 0.9375 43.910156 Z M 0.9375 0.425781 " clip-rule="nonzero"/></clipPath><clipPath id="6ae053ca74"><path d="M 23.339844 0.605469 L 33.246094 6.582031 L 10.859375 43.675781 L 0.953125 37.695312 Z M 23.339844 0.605469 " clip-rule="nonzero"/></clipPath><clipPath id="87277eb0dc"><rect x="0" width="34" y="0" height="44"/></clipPath><clipPath id="065e92616d"><path d="M 166 45 L 189 45 L 189 68 L 166 68 Z M 166 45 " clip-rule="nonzero"/></clipPath><clipPath id="70db744eb4"><path d="M 175.285156 45.507812 L 188.785156 53.65625 L 180.484375 67.40625 L 166.984375 59.261719 Z M 175.285156 45.507812 " clip-rule="nonzero"/></clipPath><clipPath id="d788498e7e"><path d="M 0.890625 0.398438 L 22.875 0.398438 L 22.875 22.621094 L 0.890625 22.621094 Z M 0.890625 0.398438 " clip-rule="nonzero"/></clipPath><clipPath id="79b9b9f1bb"><path d="M 9.285156 0.507812 L 22.785156 8.65625 L 14.484375 22.40625 L 0.984375 14.261719 Z M 9.285156 0.507812 " clip-rule="nonzero"/></clipPath><clipPath id="74ee47c1e6"><rect x="0" width="23" y="0" height="23"/></clipPath><clipPath id="e0455e8d4c"><path d="M 182 46 L 204 46 L 204 68 L 182 68 Z M 182 46 " clip-rule="nonzero"/></clipPath><clipPath id="c696cb0aeb"><path d="M 190.1875 46.976562 L 203.6875 55.125 L 196.269531 67.40625 L 182.773438 59.261719 Z M 190.1875 46.976562 " clip-rule="nonzero"/></clipPath><clipPath id="3a4fd48fdf"><path d="M 0.660156 0.832031 L 21.6875 0.832031 L 21.6875 21.621094 L 0.660156 21.621094 Z M 0.660156 0.832031 " clip-rule="nonzero"/></clipPath><clipPath id="848554c574"><path d="M 8.1875 0.976562 L 21.6875 9.125 L 14.269531 21.40625 L 0.773438 13.261719 Z M 8.1875 0.976562 " clip-rule="nonzero"/></clipPath><clipPath id="3b92186170"><rect x="0" width="22" y="0" height="22"/></clipPath><clipPath id="527d2204a7"><path d="M 142.722656 11.199219 L 232.277344 11.199219 L 232.277344 100.800781 L 142.722656 100.800781 Z M 142.722656 11.199219 " clip-rule="nonzero"/></clipPath></defs><g transform="matrix(1, 0, 0, 1, 150, 0)"><g clip-path="url(#f70b87fd01)"><g fill="#3d3b3a" fill-opacity="1"><g transform="translate(0.932493, 60.377448)"><g><path d="M 26.828125 -41.921875 C 29.734375 -41.921875 32.109375 -41.710938 33.953125 -41.296875 C 35.796875 -40.878906 37.75 -40.144531 39.8125 -39.09375 C 40.082031 -38.914062 40.25 -38.769531 40.3125 -38.65625 C 40.375 -38.550781 40.425781 -38.210938 40.46875 -37.640625 L 41.265625 -30.125 C 41.265625 -29.988281 41.144531 -29.910156 40.90625 -29.890625 C 40.664062 -29.867188 40.519531 -29.925781 40.46875 -30.0625 C 39.507812 -33.707031 37.90625 -36.441406 35.65625 -38.265625 C 33.414062 -40.085938 30.472656 -41 26.828125 -41 C 22.960938 -41 19.566406 -40.1875 16.640625 -38.5625 C 13.722656 -36.9375 11.460938 -34.617188 9.859375 -31.609375 C 8.253906 -28.597656 7.453125 -25.09375 7.453125 -21.09375 C 7.453125 -17.351562 8.335938 -13.867188 10.109375 -10.640625 C 11.890625 -7.410156 14.285156 -4.835938 17.296875 -2.921875 C 20.304688 -1.015625 23.53125 -0.0625 26.96875 -0.0625 C 34.257812 -0.0625 38.914062 -3.644531 40.9375 -10.8125 C 40.9375 -10.894531 41.046875 -10.9375 41.265625 -10.9375 C 41.578125 -10.9375 41.734375 -10.875 41.734375 -10.75 L 41.203125 -3.75 C 41.160156 -3.226562 41.09375 -2.898438 41 -2.765625 C 40.914062 -2.640625 40.738281 -2.488281 40.46875 -2.3125 C 38.1875 -1.125 36.046875 -0.300781 34.046875 0.15625 C 32.046875 0.625 29.660156 0.859375 26.890625 0.859375 C 22.328125 0.859375 18.253906 -0.0507812 14.671875 -1.875 C 11.085938 -3.695312 8.285156 -6.265625 6.265625 -9.578125 C 4.242188 -12.898438 3.234375 -16.71875 3.234375 -21.03125 C 3.234375 -25.15625 4.242188 -28.800781 6.265625 -31.96875 C 8.285156 -35.132812 11.085938 -37.582031 14.671875 -39.3125 C 18.253906 -41.050781 22.304688 -41.921875 26.828125 -41.921875 Z M 26.828125 -41.921875 "/></g></g></g></g></g><g clip-path="url(#8f4d1cc601)"><g transform="matrix(1, 0, 0, 1, 169, 33)"><g clip-path="url(#dc490fdcf1)"><g fill="#3d3b3a" fill-opacity="1"><g transform="translate(1.473896, 60.817574)"><g><path d="M 51.640625 -0.765625 C 51.773438 -0.765625 51.84375 -0.632812 51.84375 -0.375 C 51.84375 -0.125 51.773438 0 51.640625 0 C 50.316406 0 49.273438 -0.0195312 48.515625 -0.0625 L 44.21875 -0.125 L 40.25 -0.0625 C 39.613281 -0.0195312 38.71875 0 37.5625 0 C 37.476562 0 37.4375 -0.125 37.4375 -0.375 C 37.4375 -0.632812 37.476562 -0.765625 37.5625 -0.765625 C 39.0625 -0.765625 40.160156 -0.878906 40.859375 -1.109375 C 41.566406 -1.347656 42.035156 -1.765625 42.265625 -2.359375 C 42.503906 -2.960938 42.582031 -3.90625 42.5 -5.1875 L 41.40625 -34.9375 L 26.4375 -0.453125 C 26.34375 -0.273438 26.171875 -0.1875 25.921875 -0.1875 C 25.703125 -0.1875 25.507812 -0.273438 25.34375 -0.453125 L 9.734375 -34.6875 L 9.65625 -34.8125 L 9.15625 -6.65625 C 9.113281 -4.4375 9.472656 -2.898438 10.234375 -2.046875 C 11.003906 -1.191406 12.4375 -0.765625 14.53125 -0.765625 C 14.613281 -0.765625 14.65625 -0.632812 14.65625 -0.375 C 14.65625 -0.125 14.613281 0 14.53125 0 C 13.332031 0 12.414062 -0.0195312 11.78125 -0.0625 L 8.3125 -0.125 L 5.1875 -0.0625 C 4.632812 -0.0195312 3.800781 0 2.6875 0 C 2.601562 0 2.5625 -0.125 2.5625 -0.375 C 2.5625 -0.632812 2.601562 -0.765625 2.6875 -0.765625 C 4.476562 -0.765625 5.742188 -1.203125 6.484375 -2.078125 C 7.234375 -2.953125 7.632812 -4.476562 7.6875 -6.65625 L 8.3125 -36.984375 C 7 -38.484375 5.273438 -39.234375 3.140625 -39.234375 C 3.054688 -39.234375 3.015625 -39.359375 3.015625 -39.609375 C 3.015625 -39.867188 3.054688 -40 3.140625 -40 L 5.3125 -39.9375 C 5.738281 -39.894531 6.289062 -39.875 6.96875 -39.875 C 7.65625 -39.875 8.234375 -39.894531 8.703125 -39.9375 C 9.171875 -39.976562 9.535156 -40 9.796875 -40 C 10.390625 -40 10.859375 -39.796875 11.203125 -39.390625 C 11.546875 -38.984375 12.054688 -38.078125 12.734375 -36.671875 L 27.140625 -5.5625 L 41.46875 -38.40625 C 41.6875 -38.875 41.972656 -39.253906 42.328125 -39.546875 C 42.691406 -39.847656 43.046875 -40 43.390625 -40 C 43.554688 -40 43.832031 -39.976562 44.21875 -39.9375 C 44.601562 -39.894531 45.140625 -39.875 45.828125 -39.875 L 48.703125 -39.9375 C 49.128906 -39.976562 49.789062 -40 50.6875 -40 C 50.769531 -40 50.8125 -39.867188 50.8125 -39.609375 C 50.8125 -39.359375 50.769531 -39.234375 50.6875 -39.234375 C 48.46875 -39.234375 46.898438 -38.941406 45.984375 -38.359375 C 45.066406 -37.785156 44.628906 -36.644531 44.671875 -34.9375 L 45.890625 -5.1875 C 45.929688 -3.863281 46.085938 -2.898438 46.359375 -2.296875 C 46.640625 -1.703125 47.175781 -1.296875 47.96875 -1.078125 C 48.757812 -0.867188 49.984375 -0.765625 51.640625 -0.765625 Z M 51.640625 -0.765625 "/></g></g></g></g></g></g><g clip-path="url(#00d62f398e)"><g clip-path="url(#e5134afc2d)"><g transform="matrix(1, 0, 0, 1, 165, 39)"><g clip-path="url(#87277eb0dc)"><g clip-path="url(#e96d6a9926)"><g clip-path="url(#6ae053ca74)"><path fill="#ffffff" d="M 23.339844 0.605469 L 33.246094 6.582031 L 10.847656 43.691406 L 0.945312 37.710938 Z M 23.339844 0.605469 " fill-opacity="1" fill-rule="nonzero"/></g></g></g></g></g></g><g clip-path="url(#065e92616d)"><g clip-path="url(#70db744eb4)"><g transform="matrix(1, 0, 0, 1, 166, 45)"><g clip-path="url(#74ee47c1e6)"><g clip-path="url(#d788498e7e)"><g clip-path="url(#79b9b9f1bb)"><path fill="#ffffff" d="M 9.285156 0.507812 L 22.785156 8.65625 L 14.476562 22.417969 L 0.980469 14.269531 Z M 9.285156 0.507812 " fill-opacity="1" fill-rule="nonzero"/></g></g></g></g></g></g><g clip-path="url(#e0455e8d4c)"><g clip-path="url(#c696cb0aeb)"><g transform="matrix(1, 0, 0, 1, 182, 46)"><g clip-path="url(#3b92186170)"><g clip-path="url(#3a4fd48fdf)"><g clip-path="url(#848554c574)"><path fill="#ffffff" d="M 8.1875 0.976562 L 21.671875 9.113281 L 14.257812 21.398438 L 0.773438 13.261719 Z M 8.1875 0.976562 " fill-opacity="1" fill-rule="nonzero"/></g></g></g></g></g></g><path stroke-linecap="butt" transform="matrix(0.429146, -0.611038, 0.611038, 0.429146, 161.744809, 87.51382)" fill="none" stroke-linejoin="miter" d="M 0.00141887 0.998386 L 96.310683 1.000537 " stroke="#000000" stroke-width="2" stroke-opacity="1" stroke-miterlimit="4"/><g clip-path="url(#527d2204a7)"><path stroke-linecap="butt" transform="matrix(0.746681, 0, 0, 0.746681, 142.721745, 11.200915)" fill="none" stroke-linejoin="miter" d="M 0.00122034 -0.00227177 L 119.938173 -0.00227177 L 119.938173 119.997459 L 0.00122034 119.997459 Z M 0.00122034 -0.00227177 " stroke="#000000" stroke-width="2" stroke-opacity="1" stroke-miterlimit="4"/></g></svg>