<svg xmlns="http://www.w3.org/2000/svg" xmlns:xlink="http://www.w3.org/1999/xlink" width="500" zoomAndPan="magnify" viewBox="0 0 375 374.999991" height="500" preserveAspectRatio="xMidYMid meet" version="1.0"><defs><g/></defs><g fill="#3d3b3a" fill-opacity="1"><g transform="translate(43.594499, 225.749985)"><g><path d="M 57.703125 -17.046875 C 58.429688 -17.046875 59.082031 -16.765625 59.65625 -16.203125 L 64.953125 -10.453125 C 62.015625 -6.816406 58.40625 -4.03125 54.125 -2.09375 C 49.84375 -0.164062 44.703125 0.796875 38.703125 0.796875 C 33.335938 0.796875 28.507812 -0.117188 24.21875 -1.953125 C 19.9375 -3.785156 16.28125 -6.332031 13.25 -9.59375 C 10.21875 -12.863281 7.890625 -16.765625 6.265625 -21.296875 C 4.648438 -25.828125 3.84375 -30.78125 3.84375 -36.15625 C 3.84375 -41.582031 4.707031 -46.550781 6.4375 -51.0625 C 8.175781 -55.582031 10.617188 -59.476562 13.765625 -62.75 C 16.921875 -66.019531 20.679688 -68.5625 25.046875 -70.375 C 29.410156 -72.1875 34.242188 -73.09375 39.546875 -73.09375 C 44.816406 -73.09375 49.492188 -72.226562 53.578125 -70.5 C 57.660156 -68.769531 61.132812 -66.503906 64 -63.703125 L 59.5 -57.453125 C 59.226562 -57.046875 58.882812 -56.691406 58.46875 -56.390625 C 58.050781 -56.097656 57.476562 -55.953125 56.75 -55.953125 C 56.25 -55.953125 55.734375 -56.09375 55.203125 -56.375 C 54.671875 -56.65625 54.085938 -57.003906 53.453125 -57.421875 C 52.816406 -57.835938 52.082031 -58.296875 51.25 -58.796875 C 50.414062 -59.296875 49.445312 -59.753906 48.34375 -60.171875 C 47.25 -60.585938 45.972656 -60.9375 44.515625 -61.21875 C 43.066406 -61.507812 41.394531 -61.65625 39.5 -61.65625 C 36.269531 -61.65625 33.3125 -61.078125 30.625 -59.921875 C 27.9375 -58.773438 25.625 -57.109375 23.6875 -54.921875 C 21.757812 -52.742188 20.257812 -50.078125 19.1875 -46.921875 C 18.125 -43.773438 17.59375 -40.1875 17.59375 -36.15625 C 17.59375 -32.082031 18.164062 -28.460938 19.3125 -25.296875 C 20.46875 -22.128906 22.03125 -19.460938 24 -17.296875 C 25.96875 -15.128906 28.285156 -13.46875 30.953125 -12.3125 C 33.617188 -11.164062 36.484375 -10.59375 39.546875 -10.59375 C 41.378906 -10.59375 43.035156 -10.691406 44.515625 -10.890625 C 46.003906 -11.097656 47.375 -11.414062 48.625 -11.84375 C 49.875 -12.28125 51.054688 -12.835938 52.171875 -13.515625 C 53.285156 -14.203125 54.394531 -15.046875 55.5 -16.046875 C 55.832031 -16.347656 56.179688 -16.585938 56.546875 -16.765625 C 56.910156 -16.953125 57.296875 -17.046875 57.703125 -17.046875 Z M 57.703125 -17.046875 "/></g></g></g><g fill="#3d3b3a" fill-opacity="1"><g transform="translate(137.141749, 225.749985)"><g><path d="M 23.90625 -33.796875 C 21.238281 -32.066406 19.296875 -30.109375 18.078125 -27.921875 C 16.859375 -25.742188 16.25 -23.40625 16.25 -20.90625 C 16.25 -19.070312 16.566406 -17.421875 17.203125 -15.953125 C 17.835938 -14.484375 18.695312 -13.238281 19.78125 -12.21875 C 20.863281 -11.207031 22.128906 -10.425781 23.578125 -9.875 C 25.023438 -9.320312 26.566406 -9.046875 28.203125 -9.046875 C 31.128906 -9.046875 33.8125 -9.503906 36.25 -10.421875 C 38.6875 -11.335938 40.882812 -12.613281 42.84375 -14.25 Z M 72.046875 0 L 59.953125 0 C 58.679688 0 57.65625 -0.148438 56.875 -0.453125 C 56.09375 -0.753906 55.269531 -1.382812 54.40625 -2.34375 L 49.40625 -7.5 C 46.238281 -4.894531 42.6875 -2.859375 38.75 -1.390625 C 34.8125 0.0664062 30.5625 0.796875 26 0.796875 C 23.226562 0.796875 20.5 0.320312 17.8125 -0.625 C 15.132812 -1.570312 12.742188 -2.945312 10.640625 -4.75 C 8.546875 -6.550781 6.859375 -8.722656 5.578125 -11.265625 C 4.296875 -13.816406 3.65625 -16.695312 3.65625 -19.90625 C 3.65625 -22.164062 4.019531 -24.300781 4.75 -26.3125 C 5.476562 -28.332031 6.492188 -30.207031 7.796875 -31.9375 C 9.097656 -33.675781 10.648438 -35.238281 12.453125 -36.625 C 14.253906 -38.007812 16.21875 -39.203125 18.34375 -40.203125 C 16.550781 -42.703125 15.253906 -45.140625 14.453125 -47.515625 C 13.648438 -49.898438 13.25 -52.28125 13.25 -54.65625 C 13.25 -57.15625 13.707031 -59.53125 14.625 -61.78125 C 15.539062 -64.03125 16.863281 -65.988281 18.59375 -67.65625 C 20.332031 -69.320312 22.46875 -70.644531 25 -71.625 C 27.53125 -72.601562 30.394531 -73.09375 33.59375 -73.09375 C 36.53125 -73.09375 39.15625 -72.644531 41.46875 -71.75 C 43.789062 -70.851562 45.773438 -69.65625 47.421875 -68.15625 C 49.078125 -66.65625 50.378906 -64.9375 51.328125 -63 C 52.273438 -61.0625 52.832031 -59.0625 53 -57 L 45.15625 -55.34375 C 43.6875 -55.050781 42.617188 -55.6875 41.953125 -57.25 C 41.648438 -58.113281 41.253906 -58.9375 40.765625 -59.71875 C 40.285156 -60.507812 39.710938 -61.195312 39.046875 -61.78125 C 38.378906 -62.363281 37.59375 -62.828125 36.6875 -63.171875 C 35.789062 -63.523438 34.757812 -63.703125 33.59375 -63.703125 C 32.195312 -63.703125 30.945312 -63.457031 29.84375 -62.96875 C 28.75 -62.488281 27.828125 -61.835938 27.078125 -61.015625 C 26.328125 -60.203125 25.75 -59.253906 25.34375 -58.171875 C 24.945312 -57.085938 24.75 -55.945312 24.75 -54.75 C 24.75 -53.75 24.847656 -52.78125 25.046875 -51.84375 C 25.242188 -50.914062 25.578125 -49.984375 26.046875 -49.046875 C 26.515625 -48.117188 27.125 -47.160156 27.875 -46.171875 C 28.625 -45.191406 29.550781 -44.132812 30.65625 -43 L 49.84375 -23.046875 C 50.945312 -25.148438 51.832031 -27.367188 52.5 -29.703125 C 53.164062 -32.035156 53.597656 -34.398438 53.796875 -36.796875 C 53.898438 -37.566406 54.164062 -38.179688 54.59375 -38.640625 C 55.03125 -39.109375 55.632812 -39.34375 56.40625 -39.34375 L 64.09375 -39.34375 C 64.0625 -34.945312 63.425781 -30.75 62.1875 -26.75 C 60.957031 -22.75 59.195312 -19.066406 56.90625 -15.703125 Z M 72.046875 0 "/></g></g></g><g fill="#3d3b3a" fill-opacity="1"><g transform="translate(236.888767, 225.749985)"><g><path d="M 86.453125 -72.296875 L 86.453125 0 L 74.59375 0 L 74.59375 -46.703125 C 74.59375 -48.566406 74.695312 -50.582031 74.90625 -52.75 L 53.046875 -11.703125 C 52.015625 -9.734375 50.429688 -8.75 48.296875 -8.75 L 46.40625 -8.75 C 44.269531 -8.75 42.6875 -9.734375 41.65625 -11.703125 L 19.546875 -52.90625 C 19.648438 -51.800781 19.734375 -50.710938 19.796875 -49.640625 C 19.867188 -48.578125 19.90625 -47.597656 19.90625 -46.703125 L 19.90625 0 L 8.046875 0 L 8.046875 -72.296875 L 18.203125 -72.296875 C 18.796875 -72.296875 19.3125 -72.28125 19.75 -72.25 C 20.1875 -72.21875 20.578125 -72.132812 20.921875 -72 C 21.273438 -71.863281 21.59375 -71.644531 21.875 -71.34375 C 22.15625 -71.050781 22.429688 -70.65625 22.703125 -70.15625 L 44.34375 -30 C 44.914062 -28.9375 45.441406 -27.835938 45.921875 -26.703125 C 46.410156 -25.566406 46.882812 -24.398438 47.34375 -23.203125 C 47.8125 -24.429688 48.296875 -25.617188 48.796875 -26.765625 C 49.296875 -27.921875 49.832031 -29.03125 50.40625 -30.09375 L 71.75 -70.15625 C 72.019531 -70.65625 72.300781 -71.050781 72.59375 -71.34375 C 72.894531 -71.644531 73.21875 -71.863281 73.5625 -72 C 73.914062 -72.132812 74.3125 -72.21875 74.75 -72.25 C 75.1875 -72.28125 75.703125 -72.296875 76.296875 -72.296875 Z M 86.453125 -72.296875 "/></g></g></g></svg>