<svg xmlns="http://www.w3.org/2000/svg" xmlns:xlink="http://www.w3.org/1999/xlink" width="180" zoomAndPan="magnify" viewBox="0 0 135 141.000003" height="188" preserveAspectRatio="xMidYMid meet" version="1.0"><defs><g/><clipPath id="d3c6ed1487"><path d="M 0.476562 5.875 L 134.523438 5.875 L 134.523438 139.179688 L 0.476562 139.179688 Z M 0.476562 5.875 " clip-rule="nonzero"/></clipPath><clipPath id="0cf0e724f9"><path d="M 67.355469 5.875 C 30.417969 5.875 0.476562 35.792969 0.476562 72.703125 C 0.476562 109.609375 30.417969 139.527344 67.355469 139.527344 C 104.289062 139.527344 134.234375 109.609375 134.234375 72.703125 C 134.234375 35.792969 104.289062 5.875 67.355469 5.875 Z M 67.355469 5.875 " clip-rule="nonzero"/></clipPath><clipPath id="07c85461ef"><rect x="0" width="47" y="0" height="81"/></clipPath><clipPath id="0416ec23eb"><rect x="0" width="56" y="0" height="80"/></clipPath><clipPath id="ee636ee784"><path d="M 45 53 L 79 53 L 79 97 L 45 97 Z M 45 53 " clip-rule="nonzero"/></clipPath><clipPath id="b5a1e86628"><path d="M 68.195312 53.167969 L 78.074219 59.128906 L 55.75 96.125 L 45.867188 90.160156 Z M 68.195312 53.167969 " clip-rule="nonzero"/></clipPath><clipPath id="07e5687359"><path d="M 0.753906 0.144531 L 33.164062 0.144531 L 33.164062 43.277344 L 0.753906 43.277344 Z M 0.753906 0.144531 " clip-rule="nonzero"/></clipPath><clipPath id="f38dc3820a"><path d="M 23.195312 0.167969 L 33.074219 6.128906 L 10.75 43.125 L 0.867188 37.160156 Z M 23.195312 0.167969 " clip-rule="nonzero"/></clipPath><clipPath id="93b2e59f56"><rect x="0" width="34" y="0" height="44"/></clipPath><clipPath id="c31d597c4f"><path d="M 46 59 L 69 59 L 69 81 L 46 81 Z M 46 59 " clip-rule="nonzero"/></clipPath><clipPath id="d20e5af255"><path d="M 55.175781 59.054688 L 68.640625 67.179688 L 60.359375 80.898438 L 46.898438 72.773438 Z M 55.175781 59.054688 " clip-rule="nonzero"/></clipPath><clipPath id="10a5f5f42c"><path d="M 0.707031 0 L 22.871094 0 L 22.871094 22 L 0.707031 22 Z M 0.707031 0 " clip-rule="nonzero"/></clipPath><clipPath id="90a9d848ee"><path d="M 9.175781 0.0546875 L 22.640625 8.179688 L 14.359375 21.898438 L 0.898438 13.773438 Z M 9.175781 0.0546875 " clip-rule="nonzero"/></clipPath><clipPath id="c6d2feedef"><rect x="0" width="23" y="0" height="22"/></clipPath><clipPath id="fe2d85258c"><path d="M 62 60 L 84 60 L 84 81 L 62 81 Z M 62 60 " clip-rule="nonzero"/></clipPath><clipPath id="01a0f3e00f"><path d="M 70.039062 60.519531 L 83.5 68.644531 L 76.105469 80.898438 L 62.644531 72.773438 Z M 70.039062 60.519531 " clip-rule="nonzero"/></clipPath><clipPath id="0079b47159"><path d="M 0.4375 0.292969 L 21.644531 0.292969 L 21.644531 21 L 0.4375 21 Z M 0.4375 0.292969 " clip-rule="nonzero"/></clipPath><clipPath id="03832d4029"><path d="M 8.039062 0.519531 L 21.5 8.644531 L 14.105469 20.898438 L 0.644531 12.773438 Z M 8.039062 0.519531 " clip-rule="nonzero"/></clipPath><clipPath id="b0e809adf1"><rect x="0" width="22" y="0" height="21"/></clipPath></defs><g clip-path="url(#d3c6ed1487)"><g clip-path="url(#0cf0e724f9)"><path stroke-linecap="butt" transform="matrix(0.744718, 0, 0, 0.744718, 0.476626, 5.874435)" fill="none" stroke-linejoin="miter" d="M 89.804211 0.000759076 C 40.204922 0.000759076 -0.0000846178 40.174295 -0.0000846178 89.736866 C -0.0000846178 139.294193 40.204922 179.467728 89.804211 179.467728 C 139.398254 179.467728 179.608507 139.294193 179.608507 89.736866 C 179.608507 40.174295 139.398254 0.000759076 89.804211 0.000759076 Z M 89.804211 0.000759076 " stroke="#3d3b3a" stroke-width="2" stroke-opacity="1" stroke-miterlimit="4"/></g></g><g transform="matrix(1, 0, 0, 1, 30, 12)"><g clip-path="url(#07c85461ef)"><g fill="#3d3b3a" fill-opacity="1"><g transform="translate(0.887134, 61.885616)"><g><path d="M 26.765625 -41.8125 C 29.648438 -41.8125 32.015625 -41.601562 33.859375 -41.1875 C 35.703125 -40.769531 37.65625 -40.035156 39.71875 -38.984375 C 39.976562 -38.816406 40.140625 -38.675781 40.203125 -38.5625 C 40.265625 -38.445312 40.320312 -38.109375 40.375 -37.546875 L 41.15625 -30.046875 C 41.15625 -29.910156 41.035156 -29.832031 40.796875 -29.8125 C 40.554688 -29.789062 40.414062 -29.847656 40.375 -29.984375 C 39.40625 -33.617188 37.800781 -36.34375 35.5625 -38.15625 C 33.332031 -39.976562 30.398438 -40.890625 26.765625 -40.890625 C 22.898438 -40.890625 19.507812 -40.078125 16.59375 -38.453125 C 13.6875 -36.835938 11.429688 -34.523438 9.828125 -31.515625 C 8.234375 -28.515625 7.4375 -25.023438 7.4375 -21.046875 C 7.4375 -17.316406 8.320312 -13.835938 10.09375 -10.609375 C 11.863281 -7.390625 14.25 -4.828125 17.25 -2.921875 C 20.257812 -1.015625 23.472656 -0.0625 26.890625 -0.0625 C 34.171875 -0.0625 38.816406 -3.632812 40.828125 -10.78125 C 40.828125 -10.875 40.9375 -10.921875 41.15625 -10.921875 C 41.46875 -10.921875 41.625 -10.851562 41.625 -10.71875 L 41.09375 -3.75 C 41.050781 -3.21875 40.984375 -2.882812 40.890625 -2.75 C 40.804688 -2.625 40.632812 -2.472656 40.375 -2.296875 C 38.09375 -1.117188 35.953125 -0.300781 33.953125 0.15625 C 31.960938 0.625 29.585938 0.859375 26.828125 0.859375 C 22.265625 0.859375 18.195312 -0.0507812 14.625 -1.875 C 11.050781 -3.695312 8.253906 -6.257812 6.234375 -9.5625 C 4.222656 -12.875 3.21875 -16.675781 3.21875 -20.96875 C 3.21875 -25.09375 4.222656 -28.734375 6.234375 -31.890625 C 8.253906 -35.046875 11.050781 -37.488281 14.625 -39.21875 C 18.195312 -40.945312 22.242188 -41.8125 26.765625 -41.8125 Z M 26.765625 -41.8125 "/></g></g></g></g></g><g transform="matrix(1, 0, 0, 1, 49, 47)"><g clip-path="url(#0416ec23eb)"><g fill="#3d3b3a" fill-opacity="1"><g transform="translate(1.37716, 60.237825)"><g><path d="M 51.515625 -0.765625 C 51.640625 -0.765625 51.703125 -0.632812 51.703125 -0.375 C 51.703125 -0.125 51.640625 0 51.515625 0 C 50.191406 0 49.144531 -0.0195312 48.375 -0.0625 L 44.109375 -0.125 L 40.140625 -0.0625 C 39.503906 -0.0195312 38.613281 0 37.46875 0 C 37.382812 0 37.34375 -0.125 37.34375 -0.375 C 37.34375 -0.632812 37.382812 -0.765625 37.46875 -0.765625 C 38.957031 -0.765625 40.050781 -0.878906 40.75 -1.109375 C 41.457031 -1.347656 41.925781 -1.765625 42.15625 -2.359375 C 42.394531 -2.953125 42.46875 -3.890625 42.375 -5.171875 L 41.296875 -34.84375 L 26.359375 -0.453125 C 26.273438 -0.273438 26.101562 -0.1875 25.84375 -0.1875 C 25.632812 -0.1875 25.445312 -0.273438 25.28125 -0.453125 L 9.703125 -34.59375 L 9.640625 -34.71875 L 9.125 -6.640625 C 9.082031 -4.421875 9.441406 -2.882812 10.203125 -2.03125 C 10.972656 -1.1875 12.398438 -0.765625 14.484375 -0.765625 C 14.566406 -0.765625 14.609375 -0.632812 14.609375 -0.375 C 14.609375 -0.125 14.566406 0 14.484375 0 C 13.296875 0 12.382812 -0.0195312 11.75 -0.0625 L 8.296875 -0.125 L 5.171875 -0.0625 C 4.617188 -0.0195312 3.789062 0 2.6875 0 C 2.59375 0 2.546875 -0.125 2.546875 -0.375 C 2.546875 -0.632812 2.59375 -0.765625 2.6875 -0.765625 C 4.46875 -0.765625 5.726562 -1.203125 6.46875 -2.078125 C 7.21875 -2.953125 7.613281 -4.472656 7.65625 -6.640625 L 8.296875 -36.890625 C 6.972656 -38.378906 5.25 -39.125 3.125 -39.125 C 3.039062 -39.125 3 -39.25 3 -39.5 C 3 -39.757812 3.039062 -39.890625 3.125 -39.890625 L 5.296875 -39.828125 C 5.722656 -39.785156 6.273438 -39.765625 6.953125 -39.765625 C 7.640625 -39.765625 8.210938 -39.785156 8.671875 -39.828125 C 9.140625 -39.867188 9.503906 -39.890625 9.765625 -39.890625 C 10.359375 -39.890625 10.828125 -39.6875 11.171875 -39.28125 C 11.515625 -38.882812 12.023438 -37.984375 12.703125 -36.578125 L 27.0625 -5.546875 L 41.359375 -38.296875 C 41.578125 -38.765625 41.863281 -39.144531 42.21875 -39.4375 C 42.582031 -39.738281 42.9375 -39.890625 43.28125 -39.890625 C 43.445312 -39.890625 43.722656 -39.867188 44.109375 -39.828125 C 44.492188 -39.785156 45.023438 -39.765625 45.703125 -39.765625 L 48.578125 -39.828125 C 49.003906 -39.867188 49.660156 -39.890625 50.546875 -39.890625 C 50.628906 -39.890625 50.671875 -39.757812 50.671875 -39.5 C 50.671875 -39.25 50.628906 -39.125 50.546875 -39.125 C 48.335938 -39.125 46.773438 -38.835938 45.859375 -38.265625 C 44.941406 -37.691406 44.503906 -36.550781 44.546875 -34.84375 L 45.765625 -5.171875 C 45.804688 -3.847656 45.960938 -2.890625 46.234375 -2.296875 C 46.515625 -1.703125 47.046875 -1.296875 47.828125 -1.078125 C 48.617188 -0.867188 49.847656 -0.765625 51.515625 -0.765625 Z M 51.515625 -0.765625 "/></g></g></g></g></g><g clip-path="url(#ee636ee784)"><g clip-path="url(#b5a1e86628)"><g transform="matrix(1, 0, 0, 1, 45, 53)"><g clip-path="url(#93b2e59f56)"><g clip-path="url(#07e5687359)"><g clip-path="url(#f38dc3820a)"><path fill="#f9f5f2" d="M 23.195312 0.167969 L 33.074219 6.128906 L 10.738281 43.140625 L 0.859375 37.175781 Z M 23.195312 0.167969 " fill-opacity="1" fill-rule="nonzero"/></g></g></g></g></g></g><g clip-path="url(#c31d597c4f)"><g clip-path="url(#d20e5af255)"><g transform="matrix(1, 0, 0, 1, 46, 59)"><g clip-path="url(#c6d2feedef)"><g clip-path="url(#10a5f5f42c)"><g clip-path="url(#90a9d848ee)"><path fill="#f9f5f2" d="M 9.175781 0.0546875 L 22.640625 8.179688 L 14.355469 21.90625 L 0.894531 13.78125 Z M 9.175781 0.0546875 " fill-opacity="1" fill-rule="nonzero"/></g></g></g></g></g></g><g clip-path="url(#fe2d85258c)"><g clip-path="url(#01a0f3e00f)"><g transform="matrix(1, 0, 0, 1, 62, 60)"><g clip-path="url(#b0e809adf1)"><g clip-path="url(#0079b47159)"><g clip-path="url(#03832d4029)"><path fill="#f9f5f2" d="M 8.039062 0.519531 L 21.488281 8.636719 L 14.09375 20.890625 L 0.644531 12.773438 Z M 8.039062 0.519531 " fill-opacity="1" fill-rule="nonzero"/></g></g></g></g></g></g><path stroke-linecap="butt" transform="matrix(0.428018, -0.609431, 0.609431, 0.428018, 41.671008, 100.950645)" fill="none" stroke-linejoin="miter" d="M 0.000357734 1.00108 L 96.311678 1.000621 " stroke="#000000" stroke-width="2" stroke-opacity="1" stroke-miterlimit="4"/></svg>