<svg xmlns="http://www.w3.org/2000/svg" xmlns:xlink="http://www.w3.org/1999/xlink" width="150" zoomAndPan="magnify" viewBox="0 0 112.5 112.499997" height="150" preserveAspectRatio="xMidYMid meet" version="1.0"><defs><g/><clipPath id="556b8cbd56"><path d="M 0 0 L 112.003906 0 L 112.003906 112.003906 L 0 112.003906 Z M 0 0 " clip-rule="nonzero"/></clipPath><clipPath id="7db2892419"><rect x="0" width="59" y="0" height="86"/></clipPath><clipPath id="110c96d782"><path d="M 33 28 L 103 28 L 103 112.003906 L 33 112.003906 Z M 33 28 " clip-rule="nonzero"/></clipPath><clipPath id="eed09d1b7b"><rect x="0" width="70" y="0" height="85"/></clipPath><clipPath id="4ca157a646"><path d="M 29 35 L 70 35 L 70 90 L 29 90 Z M 29 35 " clip-rule="nonzero"/></clipPath><clipPath id="d9c5d3aa79"><path d="M 57.050781 35.386719 L 69.4375 42.863281 L 41.441406 89.25 L 29.054688 81.773438 Z M 57.050781 35.386719 " clip-rule="nonzero"/></clipPath><clipPath id="c8144e88f6"><path d="M 0 0.363281 L 40.53125 0.363281 L 40.53125 54.363281 L 0 54.363281 Z M 0 0.363281 " clip-rule="nonzero"/></clipPath><clipPath id="9317a25711"><path d="M 28.050781 0.386719 L 40.4375 7.863281 L 12.441406 54.25 L 0.0546875 46.773438 Z M 28.050781 0.386719 " clip-rule="nonzero"/></clipPath><clipPath id="ed69f9ac35"><rect x="0" width="41" y="0" height="55"/></clipPath><clipPath id="8225d2e406"><path d="M 30 42 L 58 42 L 58 71 L 30 71 Z M 30 42 " clip-rule="nonzero"/></clipPath><clipPath id="08c9764c37"><path d="M 40.726562 42.769531 L 57.605469 52.960938 L 47.226562 70.160156 L 30.34375 59.972656 Z M 40.726562 42.769531 " clip-rule="nonzero"/></clipPath><clipPath id="ed112af1f4"><path d="M 0.34375 0.769531 L 27.824219 0.769531 L 27.824219 28.246094 L 0.34375 28.246094 Z M 0.34375 0.769531 " clip-rule="nonzero"/></clipPath><clipPath id="cd289bf9d8"><path d="M 10.726562 0.769531 L 27.605469 10.960938 L 17.226562 28.160156 L 0.34375 17.972656 Z M 10.726562 0.769531 " clip-rule="nonzero"/></clipPath><clipPath id="b011703efb"><rect x="0" width="28" y="0" height="29"/></clipPath><clipPath id="917f5edd34"><path d="M 50 44 L 77 44 L 77 71 L 50 71 Z M 50 44 " clip-rule="nonzero"/></clipPath><clipPath id="5b5c7e6b97"><path d="M 59.363281 44.605469 L 76.242188 54.792969 L 66.972656 70.160156 L 50.089844 59.96875 Z M 59.363281 44.605469 " clip-rule="nonzero"/></clipPath><clipPath id="ec7d3cdca1"><path d="M 0 0.441406 L 26.460938 0.441406 L 26.460938 26.246094 L 0 26.246094 Z M 0 0.441406 " clip-rule="nonzero"/></clipPath><clipPath id="43ef0294a0"><path d="M 9.363281 0.605469 L 26.242188 10.792969 L 16.972656 26.160156 L 0.0898438 15.96875 Z M 9.363281 0.605469 " clip-rule="nonzero"/></clipPath><clipPath id="c915a50fb8"><rect x="0" width="27" y="0" height="27"/></clipPath><clipPath id="f03d9c254c"><path d="M 0 0 L 112 0 L 112 111.921875 L 0 111.921875 Z M 0 0 " clip-rule="nonzero"/></clipPath><clipPath id="39f0904cdf"><rect x="0" width="113" y="0" height="113"/></clipPath></defs><g clip-path="url(#556b8cbd56)"><g transform="matrix(1, 0, 0, 1, 0, -0.000000000000000624)"><g clip-path="url(#39f0904cdf)"><g transform="matrix(1, 0, 0, 1, 9, -0.000000000000000624)"><g clip-path="url(#7db2892419)"><g fill="#3d3b3a" fill-opacity="1"><g transform="translate(1.268633, 61.365972)"><g><path d="M 33.546875 -52.4375 C 37.179688 -52.4375 40.148438 -52.171875 42.453125 -51.640625 C 44.765625 -51.117188 47.210938 -50.203125 49.796875 -48.890625 C 50.117188 -48.671875 50.320312 -48.488281 50.40625 -48.34375 C 50.488281 -48.207031 50.554688 -47.785156 50.609375 -47.078125 L 51.609375 -37.671875 C 51.609375 -37.503906 51.457031 -37.40625 51.15625 -37.375 C 50.851562 -37.351562 50.671875 -37.425781 50.609375 -37.59375 C 49.398438 -42.15625 47.394531 -45.578125 44.59375 -47.859375 C 41.789062 -50.140625 38.109375 -51.28125 33.546875 -51.28125 C 28.710938 -51.28125 24.46875 -50.257812 20.8125 -48.21875 C 17.15625 -46.1875 14.320312 -43.285156 12.3125 -39.515625 C 10.3125 -35.753906 9.3125 -31.375 9.3125 -26.375 C 9.3125 -21.707031 10.425781 -17.351562 12.65625 -13.3125 C 14.882812 -9.269531 17.878906 -6.050781 21.640625 -3.65625 C 25.398438 -1.269531 29.425781 -0.078125 33.71875 -0.078125 C 42.84375 -0.078125 48.664062 -4.554688 51.1875 -13.515625 C 51.1875 -13.628906 51.328125 -13.6875 51.609375 -13.6875 C 51.992188 -13.6875 52.1875 -13.601562 52.1875 -13.4375 L 51.53125 -4.703125 C 51.46875 -4.035156 51.378906 -3.617188 51.265625 -3.453125 C 51.160156 -3.296875 50.941406 -3.109375 50.609375 -2.890625 C 47.753906 -1.398438 45.078125 -0.367188 42.578125 0.203125 C 40.078125 0.785156 37.097656 1.078125 33.640625 1.078125 C 27.921875 1.078125 22.820312 -0.0625 18.34375 -2.34375 C 13.863281 -4.625 10.359375 -7.835938 7.828125 -11.984375 C 5.304688 -16.140625 4.046875 -20.910156 4.046875 -26.296875 C 4.046875 -31.460938 5.304688 -36.023438 7.828125 -39.984375 C 10.359375 -43.941406 13.863281 -47.003906 18.34375 -49.171875 C 22.820312 -51.347656 27.890625 -52.4375 33.546875 -52.4375 Z M 33.546875 -52.4375 "/></g></g></g></g></g><g clip-path="url(#110c96d782)"><g transform="matrix(1, 0, 0, 1, 33, 28)"><g clip-path="url(#eed09d1b7b)"><g fill="#3d3b3a" fill-opacity="1"><g transform="translate(1.707736, 75.18726)"><g><path d="M 64.578125 -0.953125 C 64.742188 -0.953125 64.828125 -0.789062 64.828125 -0.46875 C 64.828125 -0.15625 64.742188 0 64.578125 0 C 62.929688 0 61.625 -0.0234375 60.65625 -0.078125 L 55.296875 -0.15625 L 50.34375 -0.078125 C 49.539062 -0.0234375 48.421875 0 46.984375 0 C 46.867188 0 46.8125 -0.15625 46.8125 -0.46875 C 46.8125 -0.789062 46.867188 -0.953125 46.984375 -0.953125 C 48.847656 -0.953125 50.21875 -1.097656 51.09375 -1.390625 C 51.976562 -1.691406 52.566406 -2.210938 52.859375 -2.953125 C 53.148438 -3.703125 53.242188 -4.878906 53.140625 -6.484375 L 51.78125 -43.703125 L 33.046875 -0.5625 C 32.941406 -0.34375 32.726562 -0.234375 32.40625 -0.234375 C 32.144531 -0.234375 31.90625 -0.34375 31.6875 -0.5625 L 12.171875 -43.375 L 12.078125 -43.53125 L 11.4375 -8.328125 C 11.382812 -5.546875 11.835938 -3.617188 12.796875 -2.546875 C 13.765625 -1.484375 15.554688 -0.953125 18.171875 -0.953125 C 18.273438 -0.953125 18.328125 -0.789062 18.328125 -0.46875 C 18.328125 -0.15625 18.273438 0 18.171875 0 C 16.671875 0 15.519531 -0.0234375 14.71875 -0.078125 L 10.40625 -0.15625 L 6.484375 -0.078125 C 5.785156 -0.0234375 4.742188 0 3.359375 0 C 3.253906 0 3.203125 -0.15625 3.203125 -0.46875 C 3.203125 -0.789062 3.253906 -0.953125 3.359375 -0.953125 C 5.597656 -0.953125 7.1875 -1.5 8.125 -2.59375 C 9.0625 -3.6875 9.554688 -5.597656 9.609375 -8.328125 L 10.40625 -46.265625 C 8.75 -48.128906 6.585938 -49.0625 3.921875 -49.0625 C 3.816406 -49.0625 3.765625 -49.21875 3.765625 -49.53125 C 3.765625 -49.851562 3.816406 -50.015625 3.921875 -50.015625 L 6.640625 -49.9375 C 7.171875 -49.882812 7.863281 -49.859375 8.71875 -49.859375 C 9.570312 -49.859375 10.289062 -49.882812 10.875 -49.9375 C 11.46875 -49.988281 11.925781 -50.015625 12.25 -50.015625 C 12.988281 -50.015625 13.570312 -49.757812 14 -49.25 C 14.425781 -48.75 15.066406 -47.617188 15.921875 -45.859375 L 33.9375 -6.96875 L 51.859375 -48.015625 C 52.128906 -48.609375 52.488281 -49.085938 52.9375 -49.453125 C 53.394531 -49.828125 53.835938 -50.015625 54.265625 -50.015625 C 54.472656 -50.015625 54.816406 -49.988281 55.296875 -49.9375 C 55.773438 -49.882812 56.441406 -49.859375 57.296875 -49.859375 L 60.90625 -49.9375 C 61.4375 -49.988281 62.265625 -50.015625 63.390625 -50.015625 C 63.492188 -50.015625 63.546875 -49.851562 63.546875 -49.53125 C 63.546875 -49.21875 63.492188 -49.0625 63.390625 -49.0625 C 60.609375 -49.0625 58.644531 -48.695312 57.5 -47.96875 C 56.351562 -47.25 55.804688 -45.828125 55.859375 -43.703125 L 57.375 -6.484375 C 57.4375 -4.828125 57.640625 -3.625 57.984375 -2.875 C 58.328125 -2.132812 58.992188 -1.628906 59.984375 -1.359375 C 60.972656 -1.085938 62.503906 -0.953125 64.578125 -0.953125 Z M 64.578125 -0.953125 "/></g></g></g></g></g></g><g clip-path="url(#4ca157a646)"><g clip-path="url(#d9c5d3aa79)"><g transform="matrix(1, 0, 0, 1, 29, 35)"><g clip-path="url(#ed69f9ac35)"><g clip-path="url(#c8144e88f6)"><g clip-path="url(#9317a25711)"><path fill="#ffffff" d="M 28.050781 0.386719 L 40.4375 7.863281 L 12.429688 54.269531 L 0.0429688 46.792969 Z M 28.050781 0.386719 " fill-opacity="1" fill-rule="nonzero"/></g></g></g></g></g></g><g clip-path="url(#8225d2e406)"><g clip-path="url(#08c9764c37)"><g transform="matrix(1, 0, 0, 1, 30, 42)"><g clip-path="url(#b011703efb)"><g clip-path="url(#ed112af1f4)"><g clip-path="url(#cd289bf9d8)"><path fill="#ffffff" d="M 10.726562 0.769531 L 27.605469 10.960938 L 17.21875 28.171875 L 0.339844 17.980469 Z M 10.726562 0.769531 " fill-opacity="1" fill-rule="nonzero"/></g></g></g></g></g></g><g clip-path="url(#917f5edd34)"><g clip-path="url(#5b5c7e6b97)"><g transform="matrix(1, 0, 0, 1, 50, 44)"><g clip-path="url(#c915a50fb8)"><g clip-path="url(#ec7d3cdca1)"><g clip-path="url(#43ef0294a0)"><path fill="#ffffff" d="M 9.363281 0.605469 L 26.226562 10.785156 L 16.953125 26.148438 L 0.0898438 15.96875 Z M 9.363281 0.605469 " fill-opacity="1" fill-rule="nonzero"/></g></g></g></g></g></g><path stroke-linecap="butt" transform="matrix(0.536704, -0.764183, 0.764183, 0.536704, 23.790841, 95.303581)" fill="none" stroke-linejoin="miter" d="M 0.00017923 0.999433 L 96.313802 0.998841 " stroke="#000000" stroke-width="2" stroke-opacity="1" stroke-miterlimit="4"/><g clip-path="url(#f03d9c254c)"><path stroke-linecap="butt" transform="matrix(0.933824, 0, 0, 0.933824, 0.0000015, -0.135766)" fill="none" stroke-linejoin="miter" d="M -0.0000016063 -0.0010203 L 119.937002 -0.0010203 L 119.937002 119.99873 L -0.0000016063 119.99873 Z M -0.0000016063 -0.0010203 " stroke="#000000" stroke-width="1.599192" stroke-opacity="1" stroke-miterlimit="4"/></g></g></g></g></svg>